<svg width="24" height="24" viewBox="0 0 24 24" fill="none" xmlns="http://www.w3.org/2000/svg">
<path fill-rule="evenodd" clip-rule="evenodd" d="M8 5.25C8 4.00736 9.00736 3 10.25 3H14C14.1989 3 14.3897 3.07902 14.5303 3.21967L19.7803 8.46967C19.9209 8.61032 20 8.80109 20 9V15.75C20 16.9927 18.9927 18 17.75 18H17V18.75C17 19.9927 15.9927 21 14.75 21H7.25C6.00736 21 5 19.9927 5 18.75V8.25C5 7.00736 6.00736 6 7.25 6H8V5.25ZM8 7.5H7.25C6.83579 7.5 6.5 7.83579 6.5 8.25V18.75C6.5 19.1642 6.83579 19.5 7.25 19.5H14.75C15.1642 19.5 15.5 19.1642 15.5 18.75V18H10.25C9.00736 18 8 16.9927 8 15.75V7.5ZM10.25 4.5C9.83579 4.5 9.5 4.83579 9.5 5.25V15.75C9.5 16.1642 9.83578 16.5 10.25 16.5H17.75C18.1642 16.5 18.5 16.1642 18.5 15.75V9.75H15.5C14.2573 9.75 13.25 8.74264 13.25 7.5V4.5H10.25ZM14.75 5.56066L17.4394 8.25H15.5C15.0858 8.25 14.75 7.91421 14.75 7.5V5.56066Z" fill="#F5F5F5"/>
</svg>
